<?xml version="1.0" encoding="UTF-8" standalone="no"?>
<!-- Created with Inkscape (http://www.inkscape.org/) -->

<svg
   xmlns:dc="http://purl.org/dc/elements/1.1/"
   xmlns:cc="http://creativecommons.org/ns#"
   xmlns:rdf="http://www.w3.org/1999/02/22-rdf-syntax-ns#"
   xmlns:svg="http://www.w3.org/2000/svg"
   xmlns="http://www.w3.org/2000/svg"
   xmlns:sodipodi="http://sodipodi.sourceforge.net/DTD/sodipodi-0.dtd"
   xmlns:inkscape="http://www.inkscape.org/namespaces/inkscape"
   width="214mm"
   height="297mm"
   viewBox="0 0 214 297"
   version="1.1"
   id="svg8"
   inkscape:version="0.92.2 2405546, 2018-03-11"
   sodipodi:docname="cover.svg">
  <defs
     id="defs2">
    <clipPath
       id="clipPath865"
       clipPathUnits="userSpaceOnUse">
      <path
         inkscape:connector-curvature="0"
         id="path863"
         d="m 119,782.249 h 28 V 741.89 h -28 z" />
    </clipPath>
    <clipPath
       id="clipPath875"
       clipPathUnits="userSpaceOnUse">
      <path
         inkscape:connector-curvature="0"
         id="path873"
         d="m 148,782.249 h 12 V 741.89 h -12 z" />
    </clipPath>
    <clipPath
       id="clipPath885"
       clipPathUnits="userSpaceOnUse">
      <path
         inkscape:connector-curvature="0"
         id="path883"
         d="m 162,782.249 h 26.512 V 741.89 H 162 Z" />
    </clipPath>
    <clipPath
       id="clipPath909"
       clipPathUnits="userSpaceOnUse">
      <path
         inkscape:connector-curvature="0"
         id="path907"
         d="M 76.895,752.89 H 118 v -11 H 76.895 Z" />
    </clipPath>
    <clipPath
       id="clipPath919"
       clipPathUnits="userSpaceOnUse">
      <path
         inkscape:connector-curvature="0"
         id="path917"
         d="m 107,782.249 h 11 V 741.89 h -11 z" />
    </clipPath>
    <clipPath
       id="clipPath929"
       clipPathUnits="userSpaceOnUse">
      <path
         inkscape:connector-curvature="0"
         id="path927"
         d="M 76.895,737.89 H 81 v -6 h -4.105 z" />
    </clipPath>
    <clipPath
       id="clipPath995"
       clipPathUnits="userSpaceOnUse">
      <path
         inkscape:connector-curvature="0"
         id="path993"
         d="m 180,736.89 h 5 v -6.215 h -5 z" />
    </clipPath>
    <clipPath
       id="clipPath1005"
       clipPathUnits="userSpaceOnUse">
      <path
         inkscape:connector-curvature="0"
         id="path1003"
         d="m 184,736.89 h 4.512 v -6.215 H 184 Z" />
    </clipPath>
  </defs>
  <sodipodi:namedview
     id="base"
     pagecolor="#ffffff"
     bordercolor="#666666"
     borderopacity="1.0"
     inkscape:pageopacity="0.0"
     inkscape:pageshadow="2"
     inkscape:zoom="1.4"
     inkscape:cx="489.31451"
     inkscape:cy="848.22873"
     inkscape:document-units="mm"
     inkscape:current-layer="layer1"
     showgrid="false"
     inkscape:window-width="1920"
     inkscape:window-height="1080"
     inkscape:window-x="0"
     inkscape:window-y="0"
     inkscape:window-maximized="1"
     showguides="false"
     inkscape:snap-bbox="true" />
  <metadata
     id="metadata5">
    <rdf:RDF>
      <cc:Work
         rdf:about="">
        <dc:format>image/svg+xml</dc:format>
        <dc:type
           rdf:resource="http://purl.org/dc/dcmitype/StillImage" />
        <dc:title></dc:title>
      </cc:Work>
    </rdf:RDF>
  </metadata>
  <g
     inkscape:label="Layer 1"
     inkscape:groupmode="layer"
     id="layer1">
    <g
       transform="matrix(0.35277777,0,0,-0.35277777,-0.88712961,295.24925)"
       inkscape:label="Thesis"
       id="g823">
      <flowRoot
         xml:space="preserve"
         id="flowRoot1384"
         style="font-style:normal;font-variant:normal;font-weight:normal;font-stretch:normal;font-size:40px;line-height:20px;font-family:'Nimbus Sans';-inkscape-font-specification:'Nimbus Sans';letter-spacing:0px;word-spacing:0px;fill:#000000;fill-opacity:1;stroke:none;stroke-width:1px;stroke-linecap:butt;stroke-linejoin:miter;stroke-opacity:1"
         transform="matrix(0.75000002,0,0,-0.75000002,11.815539,859.7705)"><flowRegion
           id="flowRegion1386"
           style="font-style:normal;font-variant:normal;font-weight:normal;font-stretch:normal;font-family:'Nimbus Sans';-inkscape-font-specification:'Nimbus Sans'"><rect
             id="rect1388"
             width="368.20059"
             height="102.53049"
             x="191.92899"
             y="863.92065"
             style="font-style:normal;font-variant:normal;font-weight:normal;font-stretch:normal;font-family:'Nimbus Sans';-inkscape-font-specification:'Nimbus Sans'" /></flowRegion><flowPara
           id="flowPara1390"
           style="font-size:15.92321587px">Time Period:</flowPara></flowRoot>      <path
         inkscape:connector-curvature="0"
         id="path829"
         style="fill:none;stroke:#808080;stroke-width:0.398074;stroke-linecap:butt;stroke-linejoin:miter;stroke-miterlimit:10;stroke-dasharray:none;stroke-opacity:1"
         d="m 42.473,808.26476 h 495.539 c 10.949,0 19.82,-8.875 19.82,-19.82 V 49.38176 H 62.293 c -10.945,0 -19.82,8.875 -19.82,19.82 v 739.063" />
      <text
         transform="scale(1,-1)"
         style="font-variant:normal;font-size:20.64039993px;font-family:'Nimbus Sans';-inkscape-font-specification:NimbusSanL-Regu;writing-mode:lr-tb;fill:#000000;fill-opacity:1;fill-rule:nonzero;stroke:none"
         id="text843"
         x="218.9985"
         y="-457.73749">
        <tspan
           x="218.9985 231.73363 243.20969 248.94772 260.42377 273.03506 286.80222 291.38437 301.70459 313.18063 324.65671 341.85016 353.3262 364.80228"
           y="-457.73749"
           sodipodi:role="line"
           id="tspan841">PeterEisenmann</tspan>
      </text>
      <path
         inkscape:connector-curvature="0"
         id="path867"
         style="fill:#000000;fill-opacity:1;fill-rule:nonzero;stroke:none"
         d="m 146.648,742.296 h -12.187 l -14.488,15.582 v 8.898 l 14.047,15.536 h 12.542 l -16.164,-20.141 16.25,-19.875" />
      <path
         inkscape:connector-curvature="0"
         id="path877"
         style="fill:#000000;fill-opacity:1;fill-rule:nonzero;stroke:none"
         d="m 148.5,782.226 h 10.953 V 742.3 H 148.5 Z" />
      <path
         inkscape:connector-curvature="0"
         id="path887"
         style="fill:#000000;fill-opacity:1;fill-rule:nonzero;stroke:none"
         d="m 188.512,782.284 h -26.41 v -9.027 h 7.726 v -30.992 h 10.953 v 30.992 h 7.731 v 9.027" />
      <path
         d="m 117.355,742.3 -0.003,0.012 v -0.004 l 0.003,-0.008"
         style="fill:#000000;fill-opacity:1;fill-rule:nonzero;stroke:none"
         id="path891"
         inkscape:connector-curvature="0" />
      <path
         d="m 117.352,742.304 v 0.004 h -0.004 l 0.004,-0.004"
         style="fill:#000000;fill-opacity:1;fill-rule:nonzero;stroke:none"
         id="path893"
         inkscape:connector-curvature="0" />
      <path
         d="m 86.09,767.651 c -2.098,-2.535 -3.883,-5.335 -5.313,-8.339 l 36.575,-17.016 -31.262,25.355"
         style="fill:#009682;fill-opacity:1;fill-rule:nonzero;stroke:none"
         id="path895"
         inkscape:connector-curvature="0" />
      <path
         d="m 117.344,742.312 -17.063,36.261 c -3.011,-1.386 -5.82,-3.132 -8.375,-5.187 l 25.442,-31.086 -0.004,0.012"
         style="fill:#009682;fill-opacity:1;fill-rule:nonzero;stroke:none"
         id="path897"
         inkscape:connector-curvature="0" />
      <path
         d="m 117.348,742.308 h 0.004 v 0.004 l -0.008,0.011 0.004,-0.015"
         style="fill:#000000;fill-opacity:1;fill-rule:nonzero;stroke:none"
         id="path899"
         inkscape:connector-curvature="0" />
      <path
         d="m 117.348,742.308 h 0.004 v 0.004 l -0.008,0.011 0.004,-0.015"
         style="fill:#000000;fill-opacity:1;fill-rule:nonzero;stroke:none"
         id="path901"
         inkscape:connector-curvature="0" />
      <path
         inkscape:connector-curvature="0"
         id="path911"
         style="fill:#009682;fill-opacity:1;fill-rule:nonzero;stroke:none"
         d="m 78.16,752.089 c -0.805,-3.133 -1.234,-6.414 -1.25,-9.793 h 40.426 l -39.176,9.793" />
      <path
         inkscape:connector-curvature="0"
         id="path921"
         style="fill:#000000;fill-opacity:1;fill-rule:nonzero;stroke:none"
         d="m 117.352,742.304 0.015,39.941 c -0.097,0 -0.199,0.008 -0.301,0.008 -3.254,0 -6.418,-0.398 -9.449,-1.129 l 9.727,-38.812 0.008,-0.008" />
      <path
         inkscape:connector-curvature="0"
         id="path931"
         style="fill:#000000;fill-opacity:1;fill-rule:nonzero;stroke:none"
         d="m 76.895,737.456 h 0.73 v -2.238 l 2.176,2.238 h 0.972 l -2.394,-2.41 2.586,-2.687 h -1.067 l -2.273,2.5 v -2.5 h -0.73 v 5.097" />
      <path
         d="m 83.812,734.136 c -0.148,0 -0.292,0.015 -0.437,0.015 -0.375,0 -1.293,-0.062 -1.293,-0.718 0,-0.395 0.379,-0.606 0.691,-0.606 0.68,0 1.039,0.426 1.039,0.981 z m -2.039,1.687 c 0.344,0.203 0.754,0.348 1.227,0.348 1.066,0 1.5,-0.523 1.5,-1.539 v -1.543 c 0,-0.422 0.012,-0.621 0.027,-0.73 h -0.644 v 0.484 h -0.012 c -0.16,-0.227 -0.527,-0.57 -1.156,-0.57 -0.801,0 -1.363,0.351 -1.363,1.16 0,0.937 1.019,1.226 1.73,1.226 0.27,0 0.461,0 0.73,-0.011 0,0.64 -0.234,0.968 -0.921,0.968 -0.387,0 -0.801,-0.144 -1.082,-0.379 l -0.036,0.586"
         style="fill:#000000;fill-opacity:1;fill-rule:nonzero;stroke:none"
         id="path935"
         inkscape:connector-curvature="0" />
      <path
         d="m 85.609,736.085 h 0.645 v -0.578 h 0.012 c 0.183,0.387 0.578,0.664 0.972,0.664 0.203,0 0.309,-0.02 0.453,-0.051 v -0.613 c -0.125,0.051 -0.261,0.066 -0.379,0.066 -0.613,0 -1.015,-0.582 -1.015,-1.519 v -1.695 h -0.688 v 3.726"
         style="fill:#000000;fill-opacity:1;fill-rule:nonzero;stroke:none"
         id="path937"
         inkscape:connector-curvature="0" />
      <path
         d="m 88.449,737.839 h 0.688 v -5.48 h -0.688 z"
         style="fill:#000000;fill-opacity:1;fill-rule:nonzero;stroke:none"
         id="path939"
         inkscape:connector-curvature="0" />
      <path
         d="m 90.125,733.089 c 0.273,-0.172 0.66,-0.262 0.855,-0.262 0.313,0 0.704,0.133 0.704,0.532 0,0.679 -1.614,0.625 -1.614,1.667 0,0.774 0.575,1.145 1.313,1.145 0.32,0 0.586,-0.062 0.855,-0.145 l -0.058,-0.597 c -0.153,0.094 -0.563,0.187 -0.723,0.187 -0.352,0 -0.656,-0.144 -0.656,-0.453 0,-0.758 1.613,-0.539 1.613,-1.73 0,-0.797 -0.637,-1.16 -1.301,-1.16 -0.351,0 -0.707,0.035 -1.023,0.203 l 0.035,0.613"
         style="fill:#000000;fill-opacity:1;fill-rule:nonzero;stroke:none"
         id="path941"
         inkscape:connector-curvature="0" />
      <path
         d="m 93.246,736.085 h 0.641 v -0.578 h 0.015 c 0.184,0.387 0.578,0.664 0.973,0.664 0.203,0 0.305,-0.02 0.453,-0.051 v -0.613 c -0.125,0.051 -0.266,0.066 -0.383,0.066 -0.613,0 -1.015,-0.582 -1.015,-1.519 v -1.695 h -0.684 v 3.726"
         style="fill:#000000;fill-opacity:1;fill-rule:nonzero;stroke:none"
         id="path943"
         inkscape:connector-curvature="0" />
      <path
         d="m 99.336,732.359 h -0.664 v 0.593 h -0.016 c -0.203,-0.426 -0.699,-0.679 -1.218,-0.679 -0.965,0 -1.395,0.597 -1.395,1.597 v 2.215 h 0.687 v -1.93 c 0,-0.867 0.188,-1.289 0.786,-1.328 0.785,0 1.132,0.629 1.132,1.535 v 1.723 h 0.688 v -3.726"
         style="fill:#000000;fill-opacity:1;fill-rule:nonzero;stroke:none"
         id="path945"
         inkscape:connector-curvature="0" />
      <path
         d="m 100.465,737.839 h 0.687 v -2.289 h 0.016 c 0.246,0.394 0.68,0.621 1.195,0.621 0.965,0 1.399,-0.598 1.399,-1.598 v -2.214 h -0.688 v 1.929 c 0,0.867 -0.191,1.293 -0.789,1.328 -0.781,0 -1.133,-0.625 -1.133,-1.531 v -1.726 h -0.687 v 5.48"
         style="fill:#000000;fill-opacity:1;fill-rule:nonzero;stroke:none"
         id="path947"
         inkscape:connector-curvature="0" />
      <path
         d="m 107.32,734.581 c 0,0.57 -0.336,1.035 -0.929,1.035 -0.672,0 -0.95,-0.554 -1,-1.035 z m 0.446,-2.066 c -0.262,-0.098 -0.563,-0.242 -1.176,-0.242 -1.324,0 -1.93,0.804 -1.93,2.015 0,1.102 0.695,1.883 1.746,1.883 1.242,0 1.645,-0.902 1.645,-2.102 h -2.66 c 0,-0.738 0.578,-1.242 1.226,-1.242 0.453,0 0.981,0.235 1.149,0.371 v -0.683"
         style="fill:#000000;fill-opacity:1;fill-rule:nonzero;stroke:none"
         id="path949"
         inkscape:connector-curvature="0" />
      <path
         d="m 111.066,737.456 h 0.73 v -5.098 h -0.73 z"
         style="fill:#000000;fill-opacity:1;fill-rule:nonzero;stroke:none"
         id="path951"
         inkscape:connector-curvature="0" />
      <path
         d="m 113,736.085 h 0.664 v -0.59 h 0.016 c 0.207,0.422 0.703,0.676 1.218,0.676 0.965,0 1.395,-0.598 1.395,-1.598 v -2.214 h -0.684 v 1.929 c 0,0.867 -0.191,1.293 -0.789,1.328 -0.781,0 -1.132,-0.625 -1.132,-1.531 v -1.726 H 113 v 3.726"
         style="fill:#000000;fill-opacity:1;fill-rule:nonzero;stroke:none"
         id="path953"
         inkscape:connector-curvature="0" />
      <path
         d="m 117.211,733.089 c 0.269,-0.172 0.656,-0.262 0.855,-0.262 0.313,0 0.7,0.133 0.7,0.532 0,0.679 -1.614,0.625 -1.614,1.667 0,0.774 0.578,1.145 1.313,1.145 0.324,0 0.586,-0.062 0.855,-0.145 l -0.058,-0.597 c -0.153,0.094 -0.563,0.187 -0.723,0.187 -0.351,0 -0.656,-0.144 -0.656,-0.453 0,-0.758 1.613,-0.539 1.613,-1.73 0,-0.797 -0.637,-1.16 -1.301,-1.16 -0.351,0 -0.707,0.035 -1.023,0.203 l 0.039,0.613"
         style="fill:#000000;fill-opacity:1;fill-rule:nonzero;stroke:none"
         id="path955"
         inkscape:connector-curvature="0" />
      <path
         d="m 122.406,735.53 h -0.984 v -2.039 c 0,-0.429 0.262,-0.664 0.574,-0.664 0.215,0 0.367,0.067 0.469,0.133 v -0.586 c -0.153,-0.043 -0.363,-0.101 -0.586,-0.101 -0.707,0 -1.145,0.336 -1.145,1.082 v 2.175 h -0.839 v 0.555 h 0.839 v 0.863 l 0.688,0.219 v -1.082 h 0.984 v -0.555"
         style="fill:#000000;fill-opacity:1;fill-rule:nonzero;stroke:none"
         id="path957"
         inkscape:connector-curvature="0" />
      <path
         d="m 123.246,736.085 h 0.688 v -3.726 h -0.688 z m 0.731,0.832 h -0.774 v 0.774 h 0.774 v -0.774"
         style="fill:#000000;fill-opacity:1;fill-rule:nonzero;stroke:none"
         id="path959"
         inkscape:connector-curvature="0" />
      <path
         d="m 127.141,735.53 h -0.985 v -2.039 c 0,-0.429 0.262,-0.664 0.578,-0.664 0.211,0 0.364,0.067 0.465,0.133 v -0.586 c -0.152,-0.043 -0.363,-0.101 -0.582,-0.101 -0.711,0 -1.148,0.336 -1.148,1.082 v 2.175 h -0.84 v 0.555 h 0.84 v 0.863 l 0.687,0.219 v -1.082 h 0.985 v -0.555"
         style="fill:#000000;fill-opacity:1;fill-rule:nonzero;stroke:none"
         id="path961"
         inkscape:connector-curvature="0" />
      <path
         d="m 131.203,732.359 h -0.664 v 0.593 h -0.016 c -0.203,-0.426 -0.699,-0.679 -1.218,-0.679 -0.965,0 -1.395,0.597 -1.395,1.597 v 2.215 h 0.684 v -1.93 c 0,-0.867 0.191,-1.289 0.789,-1.328 0.781,0 1.133,0.629 1.133,1.535 v 1.723 h 0.687 v -3.726"
         style="fill:#000000;fill-opacity:1;fill-rule:nonzero;stroke:none"
         id="path963"
         inkscape:connector-curvature="0" />
      <path
         d="m 134.367,735.53 h -0.984 v -2.039 c 0,-0.429 0.262,-0.664 0.578,-0.664 0.211,0 0.363,0.067 0.465,0.133 v -0.586 c -0.153,-0.043 -0.364,-0.101 -0.582,-0.101 -0.711,0 -1.149,0.336 -1.149,1.082 v 2.175 h -0.84 v 0.555 h 0.84 v 0.863 l 0.688,0.219 v -1.082 h 0.984 v -0.555"
         style="fill:#000000;fill-opacity:1;fill-rule:nonzero;stroke:none"
         id="path965"
         inkscape:connector-curvature="0" />
      <path
         d="m 137.559,734.581 c 0,0.57 -0.336,1.035 -0.926,1.035 -0.672,0 -0.949,-0.554 -1.004,-1.035 z m 0.445,-2.066 c -0.262,-0.098 -0.563,-0.242 -1.176,-0.242 -1.32,0 -1.93,0.804 -1.93,2.015 0,1.102 0.696,1.883 1.747,1.883 1.242,0 1.644,-0.902 1.644,-2.102 h -2.66 c 0,-0.738 0.578,-1.242 1.226,-1.242 0.454,0 0.981,0.235 1.149,0.371 v -0.683"
         style="fill:#000000;fill-opacity:1;fill-rule:nonzero;stroke:none"
         id="path967"
         inkscape:connector-curvature="0" />
      <path
         d="m 142.891,732.827 c 0.804,0 1.16,0.731 1.16,1.395 0,0.707 -0.43,1.394 -1.16,1.394 -0.739,0 -1.168,-0.687 -1.168,-1.394 0,-0.664 0.355,-1.395 1.168,-1.395 z m 0,3.344 c 1.132,0 1.89,-0.816 1.89,-1.949 0,-1.067 -0.773,-1.949 -1.89,-1.949 -1.125,0 -1.899,0.882 -1.899,1.949 0,1.133 0.758,1.949 1.899,1.949"
         style="fill:#000000;fill-opacity:1;fill-rule:nonzero;stroke:none"
         id="path969"
         inkscape:connector-curvature="0" />
      <path
         d="m 146.059,735.53 h -0.875 v 0.555 h 0.875 v 0.344 c 0,0.902 0.234,1.496 1.25,1.496 0.175,0 0.32,-0.024 0.461,-0.043 l -0.032,-0.555 c -0.078,0.028 -0.211,0.043 -0.328,0.043 -0.59,0 -0.664,-0.379 -0.664,-0.883 v -0.402 h 0.984 v -0.555 h -0.984 v -3.171 h -0.687 v 3.171"
         style="fill:#000000;fill-opacity:1;fill-rule:nonzero;stroke:none"
         id="path971"
         inkscape:connector-curvature="0" />
      <path
         d="m 151.566,736.816 h -1.586 v 0.64 h 3.899 v -0.64 h -1.582 v -4.457 h -0.731 v 4.457"
         style="fill:#000000;fill-opacity:1;fill-rule:nonzero;stroke:none"
         id="path973"
         inkscape:connector-curvature="0" />
      <path
         d="m 156.422,734.581 c 0,0.57 -0.332,1.035 -0.926,1.035 -0.672,0 -0.949,-0.554 -1,-1.035 z m 0.445,-2.066 c -0.262,-0.098 -0.558,-0.242 -1.176,-0.242 -1.32,0 -1.925,0.804 -1.925,2.015 0,1.102 0.691,1.883 1.746,1.883 1.242,0 1.64,-0.902 1.64,-2.102 h -2.656 c 0,-0.738 0.578,-1.242 1.227,-1.242 0.453,0 0.976,0.235 1.144,0.371 v -0.683"
         style="fill:#000000;fill-opacity:1;fill-rule:nonzero;stroke:none"
         id="path975"
         inkscape:connector-curvature="0" />
      <path
         d="m 160.469,735.456 c -0.262,0.11 -0.524,0.16 -0.742,0.16 -0.77,0 -1.2,-0.687 -1.2,-1.394 0,-0.664 0.36,-1.395 1.243,-1.395 0.234,0 0.523,0.074 0.738,0.211 l 0.051,-0.613 c -0.286,-0.129 -0.614,-0.152 -0.864,-0.152 -1.125,0 -1.898,0.882 -1.898,1.949 0,1.133 0.762,1.949 1.898,1.949 0.278,0 0.637,-0.062 0.832,-0.145 l -0.058,-0.57"
         style="fill:#000000;fill-opacity:1;fill-rule:nonzero;stroke:none"
         id="path977"
         inkscape:connector-curvature="0" />
      <path
         d="m 161.285,737.839 h 0.688 v -2.289 h 0.015 c 0.25,0.394 0.68,0.621 1.2,0.621 0.96,0 1.394,-0.598 1.394,-1.598 v -2.214 h -0.687 v 1.929 c 0,0.867 -0.192,1.293 -0.79,1.328 -0.781,0 -1.132,-0.625 -1.132,-1.531 v -1.726 h -0.688 v 5.48"
         style="fill:#000000;fill-opacity:1;fill-rule:nonzero;stroke:none"
         id="path979"
         inkscape:connector-curvature="0" />
      <path
         d="m 165.703,736.085 h 0.664 v -0.59 h 0.016 c 0.203,0.422 0.699,0.676 1.219,0.676 0.964,0 1.394,-0.598 1.394,-1.598 v -2.214 h -0.684 v 1.929 c 0,0.867 -0.191,1.293 -0.792,1.328 -0.782,0 -1.129,-0.625 -1.129,-1.531 v -1.726 h -0.688 v 3.726"
         style="fill:#000000;fill-opacity:1;fill-rule:nonzero;stroke:none"
         id="path981"
         inkscape:connector-curvature="0" />
      <path
         d="m 171.785,732.827 c 0.801,0 1.16,0.731 1.16,1.395 0,0.707 -0.433,1.394 -1.16,1.394 -0.738,0 -1.172,-0.687 -1.172,-1.394 0,-0.664 0.36,-1.395 1.172,-1.395 z m 0,3.344 c 1.129,0 1.891,-0.816 1.891,-1.949 0,-1.067 -0.774,-1.949 -1.891,-1.949 -1.125,0 -1.898,0.882 -1.898,1.949 0,1.133 0.758,1.949 1.898,1.949"
         style="fill:#000000;fill-opacity:1;fill-rule:nonzero;stroke:none"
         id="path983"
         inkscape:connector-curvature="0" />
      <path
         d="m 174.629,737.839 h 0.684 v -5.48 h -0.684 z"
         style="fill:#000000;fill-opacity:1;fill-rule:nonzero;stroke:none"
         id="path985"
         inkscape:connector-curvature="0" />
      <path
         d="m 178.168,732.827 c 0.801,0 1.16,0.731 1.16,1.395 0,0.707 -0.433,1.394 -1.16,1.394 -0.738,0 -1.172,-0.687 -1.172,-1.394 0,-0.664 0.359,-1.395 1.172,-1.395 z m 0,3.344 c 1.129,0 1.891,-0.816 1.891,-1.949 0,-1.067 -0.778,-1.949 -1.891,-1.949 -1.125,0 -1.902,0.882 -1.902,1.949 0,1.133 0.761,1.949 1.902,1.949"
         style="fill:#000000;fill-opacity:1;fill-rule:nonzero;stroke:none"
         id="path987"
         inkscape:connector-curvature="0" />
      <path
         inkscape:connector-curvature="0"
         id="path997"
         style="fill:#000000;fill-opacity:1;fill-rule:nonzero;stroke:none"
         d="m 183.602,734.179 c 0,0.773 -0.356,1.437 -1.086,1.437 -0.696,0 -1.039,-0.75 -1.039,-1.386 0,-0.7 0.394,-1.313 1.039,-1.313 0.64,0 1.086,0.567 1.086,1.262 z m 0.687,-1.66 c 0,-1.129 -0.586,-1.782 -1.922,-1.782 -0.394,0 -0.734,0.055 -1.336,0.258 l 0.074,0.637 c 0.528,-0.242 0.84,-0.336 1.344,-0.336 0.723,0 1.153,0.488 1.153,1.277 v 0.364 h -0.016 c -0.289,-0.387 -0.774,-0.578 -1.246,-0.578 -1.067,0 -1.594,0.871 -1.594,1.835 0,0.957 0.543,1.977 1.668,1.977 0.656,0 1.02,-0.238 1.223,-0.641 h 0.015 v 0.555 h 0.637 v -3.566" />
      <path
         inkscape:connector-curvature="0"
         id="path1007"
         style="fill:#000000;fill-opacity:1;fill-rule:nonzero;stroke:none"
         d="m 185.199,731.351 c 0.086,-0.028 0.203,-0.055 0.321,-0.055 0.613,0 0.816,0.844 0.816,0.918 0,0.082 -0.086,0.27 -0.133,0.395 l -1.262,3.476 h 0.754 l 1,-3.082 h 0.016 l 1.019,3.082 h 0.696 l -1.375,-3.805 c -0.254,-0.714 -0.524,-1.543 -1.43,-1.543 -0.219,0 -0.344,0.032 -0.469,0.055 l 0.047,0.559" />
      <text
         transform="scale(1,-1)"
         style="font-variant:normal;font-size:5.97120619px;font-family:'Nimbus Sans';-inkscape-font-specification:NimbusSanL-Regu;writing-mode:lr-tb;fill:#000000;fill-opacity:1;fill-rule:nonzero;stroke:none"
         id="text1041"
         x="76.89566"
         y="-25.464355">
        <tspan
           x="76.89566 80.878456 82.538452 87.846855 92.826836 97.138046 100.45804 101.78365 104.61997 107.93996 109.92838 112.91398 114.23959 115.89958 120.54518 123.86517 127.19113 128.85112 132.17111 137.15111 141.1339 142.7939 146.11389 147.77388 152.75386 156.07385 159.39384 163.37665 166.69662 170.01662 173.33661 176.6566 178.64502 184.10269 187.42268 190.74269 192.96994 194.62993 196.28992 199.60992 204.58394 207.90392 211.22391 213.21233 218.19827 221.51826 224.83826 229.81825 234.12946 237.44945 239.10944 240.43504 243.75504 247.07503 250.39502 253.38063 256.70062 260.0206 263.34061 266.66058 268.58929 271.90927 273.56927 276.88928 279.05084 283.69644 287.01645 290.33643 291.99643 295.31641 300.30237 304.61359 307.93356 309.25919 314.23318 317.55319 320.87317 322.19879 323.85876 328.50436 332.48718 335.47278 338.45837 341.77835 344.76395 346.08957 349.40955 351.06955 352.39517 355.71515"
           y="-25.464355"
           sodipodi:role="line"
           id="tspan1039">KIT–UniversityoftheStateofBaden-WuerttembergandNationalLaboratoryoftheHelmholtzAssociation</tspan>
      </text>
      <text
         transform="scale(1,-1)"
         style="font-variant:normal;font-weight:bold;font-size:11.94241238px;font-family:'Nimbus Sans';-inkscape-font-specification:NimbusSanL-Bold;writing-mode:lr-tb;fill:#000000;fill-opacity:1;fill-rule:nonzero;stroke:none"
         id="text1045"
         x="448.47778"
         y="-23.775164">
        <tspan
           x="448.47778 457.76898 467.06018 475.87369 479.19366 485.83365 489.15363 493.13046 496.45044 503.09042 510.38724"
           y="-23.775164"
           sodipodi:role="line"
           id="tspan1043">www.kit.edu</tspan>
      </text>
      <flowRoot
         xml:space="preserve"
         id="flowRoot1267"
         style="font-style:normal;font-weight:normal;font-size:40px;line-height:20px;font-family:sans-serif;letter-spacing:0px;word-spacing:0px;fill:#000000;fill-opacity:1;stroke:none;stroke-width:1px;stroke-linecap:butt;stroke-linejoin:miter;stroke-opacity:1"
         transform="matrix(0.75000002,0,0,-0.75000002,-24.442454,870.45147)"><flowRegion
           id="flowRegion1269"><rect
             id="rect1271"
             width="571.18604"
             height="80.230225"
             x="145.71428"
             y="302.51968" /></flowRegion><flowPara
           id="flowPara1273"
           style="font-style:normal;font-variant:normal;font-weight:normal;font-stretch:normal;font-size:33.01411438px;line-height:1.25;font-family:'Nimbus Sans';-inkscape-font-specification:'Nimbus Sans';text-align:center;text-anchor:middle">Fast Visualization of High-Dimensional Data via Parallelized t-SNE on GPUs</flowPara></flowRoot>      <flowRoot
         xml:space="preserve"
         id="flowRoot1275"
         style="font-style:normal;font-weight:normal;font-size:40px;line-height:20px;font-family:sans-serif;letter-spacing:0px;word-spacing:0px;fill:#000000;fill-opacity:1;stroke:none;stroke-width:1px;stroke-linecap:butt;stroke-linejoin:miter;stroke-opacity:1"
         transform="matrix(0.75000002,0,0,-0.75000002,21.578172,861.83846)"><flowRegion
           id="flowRegion1277"><rect
             id="rect1279"
             width="158.59395"
             height="100.76272"
             x="300.52039"
             y="447.48526" /></flowRegion><flowPara
           id="flowPara1281"
           style="font-style:normal;font-variant:normal;font-weight:normal;font-stretch:normal;font-size:19.10666656px;font-family:'Nimbus Sans';-inkscape-font-specification:'Nimbus Sans'">Master Thesis of</flowPara></flowRoot>      <flowRoot
         xml:space="preserve"
         id="flowRoot1297"
         style="font-style:normal;font-weight:normal;font-size:19.10666656px;line-height:20px;font-family:sans-serif;letter-spacing:0px;word-spacing:0px;fill:#000000;fill-opacity:1;stroke:none;stroke-width:1px;stroke-linecap:butt;stroke-linejoin:miter;stroke-opacity:1"
         transform="matrix(0.75000002,0,0,-0.75000002,2.9513813,874.56955)"><flowRegion
           id="flowRegion1299"
           style="font-size:19.10666656px"><rect
             id="rect1301"
             width="394.46457"
             height="112.12693"
             x="180.81731"
             y="726.03479"
             style="font-size:19.10666656px" /></flowRegion><flowPara
           id="flowPara1303"
           style="font-style:normal;font-variant:normal;font-weight:normal;font-stretch:normal;font-size:19.10666656px;line-height:1.25;font-family:'Nimbus Sans';-inkscape-font-specification:'Nimbus Sans'">Reviewer:</flowPara><flowPara
           id="flowPara1305"
           style="font-style:normal;font-variant:normal;font-weight:normal;font-stretch:normal;font-size:19.10666656px;line-height:1.25;font-family:'Nimbus Sans';-inkscape-font-specification:'Nimbus Sans'">Advisor:</flowPara></flowRoot>      <flowRoot
         xml:space="preserve"
         id="flowRoot1312"
         style="font-style:normal;font-weight:normal;font-size:19.10666656px;line-height:20px;font-family:sans-serif;letter-spacing:0px;word-spacing:0px;fill:#000000;fill-opacity:1;stroke:none;stroke-width:1px;stroke-linecap:butt;stroke-linejoin:miter;stroke-opacity:1"
         transform="matrix(0.75000002,0,0,-0.75000002,4.1218081,883.66037)"><flowRegion
           id="flowRegion1314"
           style="font-size:19.10666656px"><rect
             id="rect1316"
             width="317.69296"
             height="107.0762"
             x="295.4696"
             y="738.15662"
             style="font-size:19.10666656px" /></flowRegion><flowPara
           id="flowPara1318"
           style="font-style:normal;font-variant:normal;font-weight:normal;font-stretch:normal;font-size:19.10666656px;line-height:1.25;font-family:'Nimbus Sans';-inkscape-font-specification:'Nimbus Sans'">Person 1</flowPara><flowPara
           id="flowPara1320"
           style="font-style:normal;font-variant:normal;font-weight:normal;font-stretch:normal;font-size:19.10666656px;line-height:1.25;font-family:'Nimbus Sans';-inkscape-font-specification:'Nimbus Sans'">Andreas Bartschat</flowPara></flowRoot>      <flowRoot
         xml:space="preserve"
         id="flowRoot1324"
         style="font-style:normal;font-weight:normal;font-size:19.10780716px;line-height:1.25;font-family:sans-serif;text-align:center;letter-spacing:0px;word-spacing:0px;text-anchor:middle;fill:#000000;fill-opacity:1;stroke:none;stroke-width:1px;stroke-linecap:butt;stroke-linejoin:miter;stroke-opacity:1"
         transform="matrix(0.75000002,0,0,-0.75000002,-18.089365,881.20987)"><flowRegion
           id="flowRegion1326"
           style="font-size:19.10780716px;line-height:1.25;text-align:center;text-anchor:middle;fill:#000000;fill-opacity:1"><rect
             id="rect1328"
             width="411.13208"
             height="86.368042"
             x="218.19295"
             y="609.36218"
             style="font-size:19.10780716px;line-height:1.25;text-align:center;text-anchor:middle;fill:#000000;fill-opacity:1" /></flowRegion><flowPara
           style="font-style:normal;font-variant:normal;font-weight:normal;font-stretch:normal;font-size:19.10780716px;line-height:1.25;font-family:'Nimbus Sans';-inkscape-font-specification:'Nimbus Sans';text-align:center;text-anchor:middle;fill:#000000;fill-opacity:1"
           id="flowPara1336">At the Department of Informatics</flowPara><flowPara
           style="font-style:normal;font-variant:normal;font-weight:normal;font-stretch:normal;font-size:19.10780716px;line-height:1.25;font-family:'Nimbus Sans';-inkscape-font-specification:'Nimbus Sans';text-align:center;text-anchor:middle;fill:#000000;fill-opacity:1"
           id="flowPara1344">Institute for Automation and Applied Informatics</flowPara><flowPara
           style="font-style:normal;font-variant:normal;font-weight:normal;font-stretch:normal;font-size:19.10780716px;line-height:1.25;font-family:'Nimbus Sans';-inkscape-font-specification:'Nimbus Sans';text-align:center;text-anchor:middle;fill:#000000;fill-opacity:1"
           id="flowPara1332" /></flowRoot>      <flowRoot
         transform="matrix(0.75000002,0,0,-0.75000002,86.517612,859.7705)"
         style="font-style:normal;font-variant:normal;font-weight:normal;font-stretch:normal;font-size:40px;line-height:20px;font-family:'Nimbus Sans';-inkscape-font-specification:'Nimbus Sans';letter-spacing:0px;word-spacing:0px;fill:#000000;fill-opacity:1;stroke:none;stroke-width:1px;stroke-linecap:butt;stroke-linejoin:miter;stroke-opacity:1"
         id="flowRoot1398"
         xml:space="preserve"><flowRegion
           style="font-style:normal;font-variant:normal;font-weight:normal;font-stretch:normal;font-family:'Nimbus Sans';-inkscape-font-specification:'Nimbus Sans'"
           id="flowRegion1394"><rect
             style="font-style:normal;font-variant:normal;font-weight:normal;font-stretch:normal;font-family:'Nimbus Sans';-inkscape-font-specification:'Nimbus Sans'"
             y="863.92065"
             x="191.92899"
             height="102.53049"
             width="368.20059"
             id="rect1392" /></flowRegion><flowPara
           style="font-size:15.92321587px"
           id="flowPara1396">23rd June 2018 – 23rd December 2018</flowPara></flowRoot>      <g
         id="g132"
         transform="translate(15.38168)">
        <flowRoot
           transform="matrix(1.0606307,0,0,-1.0606307,-1.4625462,850.9294)"
           style="font-style:normal;font-weight:normal;font-size:40px;line-height:20px;font-family:sans-serif;letter-spacing:0px;word-spacing:0px;fill:#000000;fill-opacity:1;stroke:none;stroke-width:1px;stroke-linecap:butt;stroke-linejoin:miter;stroke-opacity:1"
           id="flowRoot105"
           xml:space="preserve"><flowRegion
             id="flowRegion107"><rect
               y="82.062561"
               x="400.02042"
               height="64.649765"
               width="143.44167"
               id="rect109" /></flowRegion><flowPara
             style="font-weight:bold"
             id="flowPara111">IAI</flowPara></flowRoot>        <flowRoot
           transform="matrix(0.16463765,0,0,-0.16463765,337.58333,759.56597)"
           style="font-style:normal;font-weight:normal;font-size:40px;line-height:20px;font-family:sans-serif;letter-spacing:0px;word-spacing:0px;fill:#000000;fill-opacity:1;stroke:none;stroke-width:1px;stroke-linecap:butt;stroke-linejoin:miter;stroke-opacity:1"
           id="flowRoot113"
           xml:space="preserve"><flowRegion
             id="flowRegion115"><rect
               y="144.69199"
               x="470.22601"
               height="259.15753"
               width="578.59113"
               id="rect117" /></flowRegion><flowPara
             style="line-height:38.22029877px;letter-spacing:0.31888211px"
             id="flowPara119">Institute for Automation</flowPara><flowPara
             id="flowPara121"
             style="line-height:38.22029877px;letter-spacing:0.31888211px">and Applied Informatics</flowPara></flowRoot>      </g>
    </g>
  </g>
</svg>
